HIERARCHY
ROOT Hips
{
	OFFSET -13.091600 -28.302996 44.698402
	CHANNELS 6 Xposition Yposition Zposition Zrotation Xrotation Yrotation
	JOINT Chest
	{
		OFFSET -0.673000 0.623899 5.369202
		CHANNELS 6 Xposition Yposition Zposition Zrotation Xrotation Yrotation
		JOINT Chest2
		{
			OFFSET 0.000000 0.000000 4.415001
			CHANNELS 6 Xposition Yposition Zposition Zrotation Xrotation Yrotation
			JOINT Neck
			{
				OFFSET 0.000000 0.000002 10.273300
				CHANNELS 6 Xposition Yposition Zposition Zrotation Xrotation Yrotation
				JOINT Head
				{
					OFFSET 0.000000 0.000000 2.173897
					CHANNELS 6 Xposition Yposition Zposition Zrotation Xrotation Yrotation
					End Site
					{
						OFFSET 0.000000 0.000000 9.961800
					}
				}
			}
			JOINT LeftCollar
			{
				OFFSET 2.359900 -0.565201 5.928101
				CHANNELS 6 Xposition Yposition Zposition Zrotation Xrotation Yrotation
				JOINT LeftShoulder
				{
					OFFSET 5.443700 0.000000 0.000000
					CHANNELS 6 Xposition Yposition Zposition Zrotation Xrotation Yrotation
					JOINT LeftElbow
					{
						OFFSET 0.000000 0.000000 -10.615799
						CHANNELS 6 Xposition Yposition Zposition Zrotation Xrotation Yrotation
						JOINT LeftWrist
						{
							OFFSET 0.000000 -0.000002 -13.110302
							CHANNELS 6 Xposition Yposition Zposition Zrotation Xrotation Yrotation
							End Site
							{
								OFFSET 0.000000 0.000000 -2.173901
							}
						}
					}
				}
			}
			JOINT RightCollar
			{
				OFFSET -2.636600 -1.718800 6.889698
				CHANNELS 6 Xposition Yposition Zposition Zrotation Xrotation Yrotation
				JOINT RightShoulder
				{
					OFFSET -4.139101 0.000000 0.000000
					CHANNELS 6 Xposition Yposition Zposition Zrotation Xrotation Yrotation
					JOINT RightElbow
					{
						OFFSET 0.000000 0.000000 -10.471802
						CHANNELS 6 Xposition Yposition Zposition Zrotation Xrotation Yrotation
						JOINT RightWrist
						{
							OFFSET 0.000000 0.000000 -12.281898
							CHANNELS 6 Xposition Yposition Zposition Zrotation Xrotation Yrotation
							End Site
							{
								OFFSET 0.000000 -0.000002 -2.173901
							}
						}
					}
				}
			}
		}
	}
	JOINT LeftHip
	{
		OFFSET 2.273400 0.176701 -2.518002
		CHANNELS 6 Xposition Yposition Zposition Zrotation Xrotation Yrotation
		JOINT LeftKnee
		{
			OFFSET 0.000000 -0.000002 -20.456402
			CHANNELS 6 Xposition Yposition Zposition Zrotation Xrotation Yrotation
			JOINT LeftAnkle
			{
				OFFSET 0.000000 -0.000002 -16.635300
				CHANNELS 6 Xposition Yposition Zposition Zrotation Xrotation Yrotation
				End Site
				{
					OFFSET 0.000000 -8.812399 0.000001
				}
			}
		}
	}
	JOINT RightHip
	{
		OFFSET -1.914800 0.018101 -2.699299
		CHANNELS 6 Xposition Yposition Zposition Zrotation Xrotation Yrotation
		JOINT RightKnee
		{
			OFFSET 0.000000 -0.000002 -20.148901
			CHANNELS 6 Xposition Yposition Zposition Zrotation Xrotation Yrotation
			JOINT RightAnkle
			{
				OFFSET 0.000000 -0.000002 -16.838301
				CHANNELS 6 Xposition Yposition Zposition Zrotation Xrotation Yrotation
				End Site
				{
					OFFSET 0.000000 -8.328398 0.000001
				}
			}
		}
	}
}
MOTION
Frames: 4
Frame Time: 0.041667
-11.474800 15.579512 39.756207 3543.637215 -12.389194 -0.076281 -0.673003 0.623892 5.369215 16.100721 39.336787 -3.855684 0.000001 -0.000009 4.415002 -8.621897 -1.534904 -0.306509 -0.000002 -0.000005 10.273304 -2.476590 17.680805 0.954348 -0.000004 0.000003 2.173900 -0.129750 -3.226036 -0.715779 2.359898 -0.565204 5.928094 -13.416103 16.128650 -2.240369 5.443698 -0.000003 -0.000000 -81.618404 334.707901 -89.879402 0.000000 0.000002 -10.615792 609.864094 -137.853298 212.290995 0.000006 0.000001 -13.110293 -1948.856018 200.000288 -501.332497 -2.636602 -1.718808 6.889701 210.599676 -195.433569 168.277761 -4.139100 0.000003 0.000004 -137.890974 -108.449566 233.067911 -0.000001 0.000003 -10.471798 -71.495818 -44.958306 -441.067006 -0.000002 -0.000007 -12.281898 -2.926364 -14.432227 7.126464 2.273395 0.176700 -2.517999 -491.710509 -149.952459 -149.259564 0.000001 -0.000005 -20.456396 752.288291 164.833693 -99.078137 -0.000002 -0.000007 -16.635298 -304.429017 0.519898 21.741904 -1.914799 0.018101 -2.699293 133.430587 202.868230 169.222663 0.000002 -0.000004 -20.148905 -795.617099 -248.296501 102.009572 0.000001 -0.000004 -16.838303 1037.292742 -2.221731 -8.921709
-11.456999 15.645803 39.747402 3544.051179 -12.467774 -0.090293 -0.673002 0.623896 5.369208 16.504295 39.264172 -4.072070 0.000001 -0.000001 4.415000 -8.739699 -1.434504 -0.297875 -0.000004 -0.000005 10.273302 -2.273066 18.207099 0.962537 -0.000002 0.000000 2.173901 -0.209724 -3.253048 -0.488334 2.359896 -0.565201 5.928095 -13.360520 15.899683 -1.933453 5.443697 0.000005 0.000002 -81.019601 334.759128 -87.658948 0.000005 -0.000001 -10.615789 610.387997 -137.878666 212.844199 0.000000 -0.000005 -13.110298 -1949.147148 199.974962 -501.505820 -2.636604 -1.718808 6.889698 210.616902 -195.167956 167.716497 -4.139096 0.000001 -0.000004 -141.912411 -110.105914 228.701180 -0.000002 0.000003 -10.471802 -72.176235 -41.010604 -441.398188 0.000004 -0.000001 -12.281896 0.639548 -14.637322 6.616177 2.273397 0.176703 -2.518001 -491.438996 -150.132926 -149.051489 0.000005 -0.000005 -20.456402 751.805370 165.372527 -99.198177 -0.000000 -0.000003 -16.635300 -304.017129 0.559028 21.765504 -1.914796 0.018098 -2.699286 133.462347 202.871180 169.377886 -0.000001 -0.000007 -20.148901 -796.826316 -248.771554 102.810753 0.000000 0.000002 -16.838301 1037.347275 -2.288861 -8.464527
-11.439399 15.704012 39.747406 3544.451374 -12.727316 -0.028089 -0.672999 0.623891 5.369210 16.490703 39.357606 -4.224484 0.000001 0.000001 4.415006 -8.663431 -1.393376 -0.300259 -0.000005 -0.000004 10.273302 -1.991557 18.819557 1.164806 -0.000003 -0.000002 2.173901 -0.165106 -3.245473 -0.509044 2.359896 -0.565205 5.928097 -13.071644 15.229526 -1.716385 5.443695 0.000005 0.000003 -80.279291 334.528787 -84.776936 -0.000000 0.000000 -10.615793 610.068890 -137.428433 212.772851 0.000003 -0.000003 -13.110296 -1949.036772 199.867127 -501.796786 -2.636605 -1.718805 6.889696 210.806248 -195.008198 167.708123 -4.139099 0.000001 0.000005 -146.887521 -111.492743 223.410898 0.000002 0.000006 -10.471793 -72.100467 -40.877986 -441.427640 0.000001 0.000002 -12.281895 0.353130 -14.747719 6.102240 2.273400 0.176699 -2.518003 -491.395720 -150.361123 -149.103289 0.000001 -0.000007 -20.456398 751.405940 165.850052 -99.312808 -0.000003 -0.000005 -16.635300 -303.638382 0.577546 21.837027 -1.914800 0.018102 -2.699293 133.694601 202.698923 169.679152 0.000001 -0.000004 -20.148899 -798.296610 -249.197813 103.713315 -0.000001 0.000001 -16.838303 1037.292196 -2.295582 -7.965846
-11.424000 15.766310 39.753510 3544.779660 -12.844455 0.003698 -0.673003 0.623894 5.369215 17.143800 39.317041 -4.659919 0.000001 0.000000 4.415005 -8.763322 -1.361963 -0.298940 -0.000000 -0.000001 10.273296 -1.995346 19.346774 1.311111 -0.000003 -0.000003 2.173894 -0.226511 -3.141144 -0.652954 2.359898 -0.565200 5.928094 -13.111064 15.017341 -1.183058 5.443691 0.000003 0.000008 -79.811437 334.723939 -82.418452 0.000000 0.000002 -10.615794 609.783006 -136.955743 212.561935 0.000003 -0.000008 -13.110296 -1949.029778 199.783238 -502.362544 -2.636601 -1.718802 6.889700 210.941226 -194.887208 166.980954 -4.139102 0.000003 0.000006 -150.956661 -112.758958 219.698799 0.000004 -0.000003 -10.471791 -71.124133 -40.345945 -441.264153 0.000001 0.000000 -12.281894 0.612068 -15.142840 5.274099 2.273395 0.176703 -2.517999 -491.267968 -150.525649 -149.063496 0.000003 -0.000005 -20.456396 751.088692 165.986806 -99.439153 -0.000004 -0.000005 -16.635298 -303.542486 0.615702 21.849838 -1.914800 0.018105 -2.699284 134.174435 202.618094 169.957305 0.000001 -0.000003 -20.148901 -799.935636 -249.532874 104.660737 -0.000001 -0.000001 -16.838301 1037.280721 -2.271453 -7.704957
